<mxfile host="Electron" agent="Mozilla/5.0 (X11; Linux x86_64) AppleWebKit/537.36 (KHTML, like Gecko) draw.io/26.0.16 Chrome/132.0.6834.196 Electron/34.2.0 Safari/537.36" version="26.0.16">
  <diagram id="Ht1M8jgEwFfnCIfOTk4-" name="Page-1">
    <mxGraphModel dx="1687" dy="998" grid="1" gridSize="10" guides="1" tooltips="1" connect="1" arrows="1" fold="1" page="1" pageScale="1" pageWidth="1169" pageHeight="827" math="0" shadow="0">
      <root>
        <mxCell id="0" />
        <mxCell id="1" parent="0" />
        <mxCell id="-QjtrjUzRDEMRZ5MF8oH-47" value="JWT-OAuth2-Spring-Boot-React" style="text;html=1;resizable=0;points=[];autosize=1;align=left;verticalAlign=top;spacingTop=-4;fontSize=30;fontStyle=1" parent="1" vertex="1">
          <mxGeometry x="56.5" y="64.5" width="450" height="40" as="geometry" />
        </mxCell>
        <mxCell id="-QjtrjUzRDEMRZ5MF8oH-48" value="Demo Application" style="text;html=1;resizable=0;points=[];autosize=1;align=left;verticalAlign=top;spacingTop=-4;fontSize=16" parent="1" vertex="1">
          <mxGeometry x="56.5" y="114.5" width="150" height="30" as="geometry" />
        </mxCell>
        <mxCell id="-QjtrjUzRDEMRZ5MF8oH-49" value="AWS Architecture" style="text;html=1;resizable=0;points=[];autosize=1;align=left;verticalAlign=top;spacingTop=-4;fontSize=16;fontStyle=1" parent="1" vertex="1">
          <mxGeometry x="84.5" y="164.5" width="150" height="30" as="geometry" />
        </mxCell>
        <mxCell id="SCVMTBWpLvtzJIhz15lM-1" value="" style="line;strokeWidth=2;html=1;fontSize=14;" parent="1" vertex="1">
          <mxGeometry x="52.5" y="139.5" width="677.5" height="10" as="geometry" />
        </mxCell>
        <mxCell id="z8ORpKs8cqZPn1UDwvL--13" value="AWS Cloud" style="points=[[0,0],[0.25,0],[0.5,0],[0.75,0],[1,0],[1,0.25],[1,0.5],[1,0.75],[1,1],[0.75,1],[0.5,1],[0.25,1],[0,1],[0,0.75],[0,0.5],[0,0.25]];outlineConnect=0;gradientColor=none;html=1;whiteSpace=wrap;fontSize=12;fontStyle=0;container=1;pointerEvents=0;collapsible=0;recursiveResize=0;shape=mxgraph.aws4.group;grIcon=mxgraph.aws4.group_aws_cloud_alt;strokeColor=#232F3E;fillColor=none;verticalAlign=top;align=left;spacingLeft=30;fontColor=#232F3E;dashed=0;" vertex="1" parent="1">
          <mxGeometry x="96.25" y="230" width="590" height="430" as="geometry" />
        </mxCell>
        <mxCell id="z8ORpKs8cqZPn1UDwvL--14" value="VPC" style="points=[[0,0],[0.25,0],[0.5,0],[0.75,0],[1,0],[1,0.25],[1,0.5],[1,0.75],[1,1],[0.75,1],[0.5,1],[0.25,1],[0,1],[0,0.75],[0,0.5],[0,0.25]];outlineConnect=0;gradientColor=none;html=1;whiteSpace=wrap;fontSize=12;fontStyle=0;container=1;pointerEvents=0;collapsible=0;recursiveResize=0;shape=mxgraph.aws4.group;grIcon=mxgraph.aws4.group_vpc2;strokeColor=#8C4FFF;fillColor=none;verticalAlign=top;align=left;spacingLeft=30;fontColor=#AAB7B8;dashed=0;" vertex="1" parent="z8ORpKs8cqZPn1UDwvL--13">
          <mxGeometry x="230" y="170" width="330" height="230" as="geometry" />
        </mxCell>
        <mxCell id="z8ORpKs8cqZPn1UDwvL--35" value="Private subnet" style="points=[[0,0],[0.25,0],[0.5,0],[0.75,0],[1,0],[1,0.25],[1,0.5],[1,0.75],[1,1],[0.75,1],[0.5,1],[0.25,1],[0,1],[0,0.75],[0,0.5],[0,0.25]];outlineConnect=0;gradientColor=none;html=1;whiteSpace=wrap;fontSize=12;fontStyle=0;container=1;pointerEvents=0;collapsible=0;recursiveResize=0;shape=mxgraph.aws4.group;grIcon=mxgraph.aws4.group_security_group;grStroke=0;strokeColor=#00A4A6;fillColor=#E6F6F7;verticalAlign=top;align=left;spacingLeft=30;fontColor=#147EBA;dashed=0;" vertex="1" parent="z8ORpKs8cqZPn1UDwvL--14">
          <mxGeometry x="170" y="40" width="120" height="150" as="geometry" />
        </mxCell>
        <mxCell id="z8ORpKs8cqZPn1UDwvL--34" value="PSQL Database" style="text;html=1;align=center;verticalAlign=middle;resizable=0;points=[];autosize=1;strokeColor=none;fillColor=none;" vertex="1" parent="z8ORpKs8cqZPn1UDwvL--35">
          <mxGeometry x="6.5" y="30" width="110" height="30" as="geometry" />
        </mxCell>
        <mxCell id="z8ORpKs8cqZPn1UDwvL--22" value="" style="sketch=0;points=[[0,0,0],[0.25,0,0],[0.5,0,0],[0.75,0,0],[1,0,0],[0,1,0],[0.25,1,0],[0.5,1,0],[0.75,1,0],[1,1,0],[0,0.25,0],[0,0.5,0],[0,0.75,0],[1,0.25,0],[1,0.5,0],[1,0.75,0]];outlineConnect=0;fontColor=#232F3E;fillColor=#C925D1;strokeColor=#ffffff;dashed=0;verticalLabelPosition=bottom;verticalAlign=top;align=center;html=1;fontSize=12;fontStyle=0;aspect=fixed;shape=mxgraph.aws4.resourceIcon;resIcon=mxgraph.aws4.rds;" vertex="1" parent="z8ORpKs8cqZPn1UDwvL--35">
          <mxGeometry x="22.5" y="60" width="78" height="78" as="geometry" />
        </mxCell>
        <mxCell id="z8ORpKs8cqZPn1UDwvL--37" value="Public subnet" style="points=[[0,0],[0.25,0],[0.5,0],[0.75,0],[1,0],[1,0.25],[1,0.5],[1,0.75],[1,1],[0.75,1],[0.5,1],[0.25,1],[0,1],[0,0.75],[0,0.5],[0,0.25]];outlineConnect=0;gradientColor=none;html=1;whiteSpace=wrap;fontSize=12;fontStyle=0;container=1;pointerEvents=0;collapsible=0;recursiveResize=0;shape=mxgraph.aws4.group;grIcon=mxgraph.aws4.group_security_group;grStroke=0;strokeColor=#7AA116;fillColor=#F2F6E8;verticalAlign=top;align=left;spacingLeft=30;fontColor=#248814;dashed=0;" vertex="1" parent="z8ORpKs8cqZPn1UDwvL--14">
          <mxGeometry x="30" y="40" width="120" height="150" as="geometry" />
        </mxCell>
        <mxCell id="z8ORpKs8cqZPn1UDwvL--18" value="" style="sketch=0;points=[[0,0,0],[0.25,0,0],[0.5,0,0],[0.75,0,0],[1,0,0],[0,1,0],[0.25,1,0],[0.5,1,0],[0.75,1,0],[1,1,0],[0,0.25,0],[0,0.5,0],[0,0.75,0],[1,0.25,0],[1,0.5,0],[1,0.75,0]];outlineConnect=0;fontColor=#232F3E;fillColor=#ED7100;strokeColor=#ffffff;dashed=0;verticalLabelPosition=bottom;verticalAlign=top;align=center;html=1;fontSize=12;fontStyle=0;aspect=fixed;shape=mxgraph.aws4.resourceIcon;resIcon=mxgraph.aws4.elastic_beanstalk;" vertex="1" parent="z8ORpKs8cqZPn1UDwvL--37">
          <mxGeometry x="20" y="60" width="78" height="78" as="geometry" />
        </mxCell>
        <mxCell id="z8ORpKs8cqZPn1UDwvL--33" value="Spring Boot Backend" style="text;html=1;align=center;verticalAlign=middle;resizable=0;points=[];autosize=1;strokeColor=none;fillColor=none;" vertex="1" parent="z8ORpKs8cqZPn1UDwvL--37">
          <mxGeometry x="-10" y="30" width="140" height="30" as="geometry" />
        </mxCell>
        <mxCell id="z8ORpKs8cqZPn1UDwvL--38" value="" style="fillColor=none;strokeColor=#DD3522;verticalAlign=top;fontStyle=0;fontColor=#DD3522;whiteSpace=wrap;html=1;" vertex="1" parent="z8ORpKs8cqZPn1UDwvL--14">
          <mxGeometry x="20" y="30" width="280" height="170" as="geometry" />
        </mxCell>
        <mxCell id="z8ORpKs8cqZPn1UDwvL--49" style="edgeStyle=orthogonalEdgeStyle;rounded=0;orthogonalLoop=1;jettySize=auto;html=1;exitX=1;exitY=0.5;exitDx=0;exitDy=0;exitPerimeter=0;" edge="1" parent="z8ORpKs8cqZPn1UDwvL--14" source="z8ORpKs8cqZPn1UDwvL--18" target="z8ORpKs8cqZPn1UDwvL--22">
          <mxGeometry relative="1" as="geometry" />
        </mxCell>
        <mxCell id="z8ORpKs8cqZPn1UDwvL--50" value="Uses" style="edgeLabel;html=1;align=center;verticalAlign=middle;resizable=0;points=[];" vertex="1" connectable="0" parent="z8ORpKs8cqZPn1UDwvL--49">
          <mxGeometry x="-0.1574" y="-2" relative="1" as="geometry">
            <mxPoint x="5" y="-2" as="offset" />
          </mxGeometry>
        </mxCell>
        <mxCell id="z8ORpKs8cqZPn1UDwvL--21" value="" style="sketch=0;points=[[0,0,0],[0.25,0,0],[0.5,0,0],[0.75,0,0],[1,0,0],[0,1,0],[0.25,1,0],[0.5,1,0],[0.75,1,0],[1,1,0],[0,0.25,0],[0,0.5,0],[0,0.75,0],[1,0.25,0],[1,0.5,0],[1,0.75,0]];outlineConnect=0;fontColor=#232F3E;fillColor=#8C4FFF;strokeColor=#ffffff;dashed=0;verticalLabelPosition=bottom;verticalAlign=top;align=center;html=1;fontSize=12;fontStyle=0;aspect=fixed;shape=mxgraph.aws4.resourceIcon;resIcon=mxgraph.aws4.cloudfront;" vertex="1" parent="z8ORpKs8cqZPn1UDwvL--13">
          <mxGeometry x="46" y="270" width="78" height="78" as="geometry" />
        </mxCell>
        <mxCell id="z8ORpKs8cqZPn1UDwvL--54" value="&lt;font style=&quot;color: rgb(255, 17, 17);&quot;&gt;Cache Disabled&lt;/font&gt;" style="text;html=1;align=center;verticalAlign=middle;resizable=0;points=[];autosize=1;strokeColor=none;fillColor=none;" vertex="1" parent="z8ORpKs8cqZPn1UDwvL--13">
          <mxGeometry x="30" y="348" width="110" height="30" as="geometry" />
        </mxCell>
        <mxCell id="z8ORpKs8cqZPn1UDwvL--52" style="edgeStyle=orthogonalEdgeStyle;rounded=0;orthogonalLoop=1;jettySize=auto;html=1;exitX=1;exitY=0.5;exitDx=0;exitDy=0;exitPerimeter=0;entryX=0;entryY=0.5;entryDx=0;entryDy=0;entryPerimeter=0;" edge="1" parent="z8ORpKs8cqZPn1UDwvL--13" source="z8ORpKs8cqZPn1UDwvL--21" target="z8ORpKs8cqZPn1UDwvL--18">
          <mxGeometry relative="1" as="geometry" />
        </mxCell>
        <mxCell id="z8ORpKs8cqZPn1UDwvL--53" value="Forwards to" style="edgeLabel;html=1;align=center;verticalAlign=middle;resizable=0;points=[];" vertex="1" connectable="0" parent="z8ORpKs8cqZPn1UDwvL--52">
          <mxGeometry x="-0.1224" relative="1" as="geometry">
            <mxPoint as="offset" />
          </mxGeometry>
        </mxCell>
        <mxCell id="z8ORpKs8cqZPn1UDwvL--16" value="" style="sketch=0;points=[[0,0,0],[0.25,0,0],[0.5,0,0],[0.75,0,0],[1,0,0],[0,1,0],[0.25,1,0],[0.5,1,0],[0.75,1,0],[1,1,0],[0,0.25,0],[0,0.5,0],[0,0.75,0],[1,0.25,0],[1,0.5,0],[1,0.75,0]];outlineConnect=0;fontColor=#232F3E;fillColor=#7AA116;strokeColor=#ffffff;dashed=0;verticalLabelPosition=bottom;verticalAlign=top;align=center;html=1;fontSize=12;fontStyle=0;aspect=fixed;shape=mxgraph.aws4.resourceIcon;resIcon=mxgraph.aws4.s3;" vertex="1" parent="z8ORpKs8cqZPn1UDwvL--13">
          <mxGeometry x="305" y="60" width="78" height="78" as="geometry" />
        </mxCell>
        <mxCell id="z8ORpKs8cqZPn1UDwvL--17" value="" style="sketch=0;points=[[0,0,0],[0.25,0,0],[0.5,0,0],[0.75,0,0],[1,0,0],[0,1,0],[0.25,1,0],[0.5,1,0],[0.75,1,0],[1,1,0],[0,0.25,0],[0,0.5,0],[0,0.75,0],[1,0.25,0],[1,0.5,0],[1,0.75,0]];outlineConnect=0;fontColor=#232F3E;fillColor=#8C4FFF;strokeColor=#ffffff;dashed=0;verticalLabelPosition=bottom;verticalAlign=top;align=center;html=1;fontSize=12;fontStyle=0;aspect=fixed;shape=mxgraph.aws4.resourceIcon;resIcon=mxgraph.aws4.cloudfront;" vertex="1" parent="z8ORpKs8cqZPn1UDwvL--13">
          <mxGeometry x="46" y="60" width="78" height="78" as="geometry" />
        </mxCell>
        <mxCell id="z8ORpKs8cqZPn1UDwvL--23" style="edgeStyle=orthogonalEdgeStyle;rounded=0;orthogonalLoop=1;jettySize=auto;html=1;exitX=1;exitY=0.5;exitDx=0;exitDy=0;exitPerimeter=0;entryX=0;entryY=0.5;entryDx=0;entryDy=0;entryPerimeter=0;" edge="1" parent="z8ORpKs8cqZPn1UDwvL--13" source="z8ORpKs8cqZPn1UDwvL--17" target="z8ORpKs8cqZPn1UDwvL--16">
          <mxGeometry relative="1" as="geometry" />
        </mxCell>
        <mxCell id="z8ORpKs8cqZPn1UDwvL--29" value="Forwards to" style="edgeLabel;html=1;align=center;verticalAlign=middle;resizable=0;points=[];" vertex="1" connectable="0" parent="z8ORpKs8cqZPn1UDwvL--23">
          <mxGeometry x="-0.1492" y="1" relative="1" as="geometry">
            <mxPoint as="offset" />
          </mxGeometry>
        </mxCell>
        <mxCell id="z8ORpKs8cqZPn1UDwvL--32" value="Frontend Website" style="text;html=1;align=center;verticalAlign=middle;resizable=0;points=[];autosize=1;strokeColor=none;fillColor=none;" vertex="1" parent="z8ORpKs8cqZPn1UDwvL--13">
          <mxGeometry x="283" y="30" width="120" height="30" as="geometry" />
        </mxCell>
      </root>
    </mxGraphModel>
  </diagram>
</mxfile>
